# xmcd
#
# Track frame offsets:
#	151
#	21920
#	48720
#	72717
#	106150
#	139228
#	163426
#	187900
#
# Disc length: 2820 seconds
#
# Revision: 1
# Processed by: cddbd v1.4PL0 Copyright (c) Steve Scherf et al.
# Submitted via: audiograbber 1.82.01
#
DISCID=780b0208
DTITLE=Mohamad Iskandar - Evana
DYEAR=1900
DGENRE=
TTITLE0=Evana
TTITLE1=Ma3ak Hak
TTITLE2=Woslet 3arousetna
TTITLE3=Ma Ja Wayakom
TTITLE4=Mal El Wared
TTITLE5=El Dal3ouna
TTITLE6=Da3aytillik
TTITLE7=Wasiyet Om
EXTD=
EXTT0=
EXTT1=
EXTT2=
EXTT3=
EXTT4=
EXTT5=
EXTT6=
EXTT7=
PLAYORDER=
